<?xml version="1.0" encoding="UTF-8" standalone="no"?>
<!-- Created with Inkscape (http://www.inkscape.org/) -->

<svg
   xmlns:dc="http://purl.org/dc/elements/1.1/"
   xmlns:cc="http://creativecommons.org/ns#"
   xmlns:rdf="http://www.w3.org/1999/02/22-rdf-syntax-ns#"
   xmlns:svg="http://www.w3.org/2000/svg"
   xmlns="http://www.w3.org/2000/svg"
   xmlns:sodipodi="http://sodipodi.sourceforge.net/DTD/sodipodi-0.dtd"
   xmlns:inkscape="http://www.inkscape.org/namespaces/inkscape"
   version="1.0"
   width="580"
   height="580"
   id="svg2"
   sodipodi:version="0.32"
   inkscape:version="0.91 r13725"
   sodipodi:docname="sheltery.svg"
   inkscape:output_extension="org.inkscape.output.svg.inkscape">
  <metadata
     id="metadata2975">
    <rdf:RDF>
      <cc:Work
         rdf:about="">
        <dc:format>image/svg+xml</dc:format>
        <dc:type
           rdf:resource="http://purl.org/dc/dcmitype/StillImage" />
        <cc:license
           rdf:resource="http://web.resource.org/cc/PublicDomain" />
        <dc:language>en</dc:language>
        <dc:title></dc:title>
      </cc:Work>
    </rdf:RDF>
  </metadata>
  <sodipodi:namedview
     inkscape:window-height="801"
     inkscape:window-width="1536"
     inkscape:pageshadow="2"
     inkscape:pageopacity="0.0"
     guidetolerance="10.0"
     gridtolerance="10.0"
     objecttolerance="10.0"
     borderopacity="1.0"
     bordercolor="#666666"
     pagecolor="#ffffff"
     id="base"
     inkscape:zoom="0.92167712"
     inkscape:cx="13.995571"
     inkscape:cy="281.19503"
     inkscape:window-x="-8"
     inkscape:window-y="-8"
     inkscape:current-layer="svg2"
     showgrid="false"
     inkscape:window-maximized="1" />
  <defs
     id="defs4">
    <inkscape:perspective
       sodipodi:type="inkscape:persp3d"
       inkscape:vp_x="0 : 290 : 1"
       inkscape:vp_y="0 : 1000 : 0"
       inkscape:vp_z="580 : 290 : 1"
       inkscape:persp3d-origin="290 : 193.33333 : 1"
       id="perspective2441" />
    <inkscape:perspective
       id="perspective3452"
       inkscape:persp3d-origin="30 : 20 : 1"
       inkscape:vp_z="60 : 30 : 1"
       inkscape:vp_y="0 : 1000 : 0"
       inkscape:vp_x="0 : 30 : 1"
       sodipodi:type="inkscape:persp3d" />
    <symbol
       viewBox="244.5 110 489 219.9"
       id="symbol-university">
      <path
         id="path4460"
         d="M79,43l57,119c0,0,21-96,104-96s124,106,124,106l43-133l82-17L0,17L79,43z" />
      <path
         id="path4462"
         d="M94,176l-21,39"
         stroke-width="20"
         stroke="#000000"
         fill="none" />
      <path
         id="path4464"
         d="M300,19c0,10.5-22.6,19-50.5,19S199,29.5,199,19s22.6-19,50.5-19S300,8.5,300,19z" />
      <path
         id="path4466"
         d="M112,216l-16-38L64,88c0,0-9-8-4-35s16-24,16-24"
         stroke-width="20"
         stroke="#000000"
         ill="none" />
    </symbol>
    <inkscape:perspective
       id="perspective4471"
       inkscape:persp3d-origin="372.04724 : 350.78739 : 1"
       inkscape:vp_z="744.09448 : 526.18109 : 1"
       inkscape:vp_y="0 : 1000 : 0"
       inkscape:vp_x="0 : 526.18109 : 1"
       sodipodi:type="inkscape:persp3d" />
    <inkscape:perspective
       id="perspective4668"
       inkscape:persp3d-origin="6 : 4 : 1"
       inkscape:vp_z="12 : 6 : 1"
       inkscape:vp_y="0 : 1000 : 0"
       inkscape:vp_x="0 : 6 : 1"
       sodipodi:type="inkscape:persp3d" />
  </defs>
  <g
     id="g1327">
    <path
       d="M 66.275,1.768 C 24.94,1.768 1.704,23.139 1.704,66.804 L 1.704,516.927 C 1.704,557.771 22.599,579.156 63.896,579.156 L 515.92,579.156 C 557.227,579.156 578.149,558.841 578.149,516.927 L 578.149,66.804 C 578.149,24.203 557.227,1.768 514.628,1.768 C 514.624,1.768 66.133,1.625 66.275,1.768 z"
       style="fill:#111111;stroke:#eeeeee;stroke-width:3.40799999"
       id="path1329" />
  </g>
  <g
     id="layer3"
     inkscape:label="Layout"
     style="display:none;stroke:#757575;stroke-opacity:1"
     transform="matrix(48.14969,0,0,48.14969,-536.27327,-33.306752)">
    <rect
       style="fill:none;stroke:#757575;stroke-width:0.10000000000000001;stroke-miterlimit:4;stroke-dasharray:none;stroke-opacity:1;display:inline"
       id="rect4134"
       width="10"
       height="10"
       x="1"
       y="1" />
    <rect
       style="fill:none;stroke:#757575;stroke-width:0.10000000000000001;stroke-miterlimit:4;stroke-dasharray:none;stroke-opacity:1;display:inline"
       id="rect4136"
       width="8"
       height="8"
       x="2"
       y="2" />
  </g>
  <g
     id="layer5"
     inkscape:label="Rain"
     style="stroke:#ffffff;stroke-opacity:1;display:inline"
     transform="matrix(59.652201,0,0,59.652201,-72.304986,-50.562035)">
    <path
       style="fill:none;fill-rule:evenodd;stroke:#ffffff;stroke-width:0.30000001;stroke-linecap:round;stroke-linejoin:miter;stroke-miterlimit:4;stroke-dasharray:none;stroke-opacity:1"
       d="M 3.25,2.25 L 2.25,3.25"
       id="path12890" />
    <path
       style="fill:none;fill-rule:evenodd;stroke:#ffffff;stroke-width:0.30000001;stroke-linecap:round;stroke-linejoin:miter;stroke-miterlimit:4;stroke-dasharray:none;stroke-opacity:1;display:inline"
       d="M 3.6,3.4 L 2.3679807,4.6320194"
       id="path15803"
       sodipodi:nodetypes="cc" />
    <path
       style="fill:none;fill-rule:evenodd;stroke:#ffffff;stroke-width:0.30000001;stroke-linecap:round;stroke-linejoin:miter;stroke-miterlimit:4;stroke-dasharray:none;stroke-opacity:1;display:inline"
       d="M 5.1320193,3.1179806 L 3.9,4.35"
       id="path15805"
       sodipodi:nodetypes="cc" />
    <path
       style="fill:none;fill-rule:evenodd;stroke:#ffffff;stroke-width:0.30000001;stroke-linecap:round;stroke-linejoin:miter;stroke-miterlimit:4;stroke-dasharray:none;stroke-opacity:1;display:inline"
       d="M 3.1,4.9 L 2.1331457,5.8668544"
       id="path15807"
       sodipodi:nodetypes="cc" />
    <path
       style="fill:none;fill-rule:evenodd;stroke:#ffffff;stroke-width:0.30000001;stroke-linecap:round;stroke-linejoin:miter;stroke-miterlimit:4;stroke-dasharray:none;stroke-opacity:1;display:inline"
       d="M 6.3820193,2.8679806 L 5.15,4.1"
       id="path15809"
       sodipodi:nodetypes="cc" />
    <path
       style="fill:none;fill-rule:evenodd;stroke:#ffffff;stroke-width:0.30000001;stroke-linecap:round;stroke-linejoin:miter;stroke-miterlimit:4;stroke-dasharray:none;stroke-opacity:1;display:inline"
       d="M 8.1320193,2.1179806 L 6.9,3.35"
       id="path15811"
       sodipodi:nodetypes="cc" />
    <path
       style="fill:none;fill-rule:evenodd;stroke:#ffffff;stroke-width:0.30000001;stroke-linecap:round;stroke-linejoin:miter;stroke-miterlimit:4;stroke-dasharray:none;stroke-opacity:1;display:inline"
       d="M 8.6320193,3.6179806 L 7.4,4.85"
       id="path15813"
       sodipodi:nodetypes="cc" />
    <path
       style="fill:none;fill-rule:evenodd;stroke:#ffffff;stroke-width:0.30000001;stroke-linecap:round;stroke-linejoin:miter;stroke-miterlimit:4;stroke-dasharray:none;stroke-opacity:1;display:inline"
       d="M 10.029592,3.5035534 L 9.1179807,4.3820194"
       id="path15815"
       sodipodi:nodetypes="cc" />
    <path
       style="fill:none;fill-rule:evenodd;stroke:#ffffff;stroke-width:0.30000001;stroke-linecap:round;stroke-linejoin:miter;stroke-miterlimit:4;stroke-dasharray:none;stroke-opacity:1;display:inline"
       d="M 10.029592,2.0035534 L 9.1179802,2.8820194"
       id="path15817"
       sodipodi:nodetypes="cc" />
    <path
       style="fill:none;fill-rule:evenodd;stroke:#ffffff;stroke-width:0.30000001;stroke-linecap:round;stroke-linejoin:miter;stroke-miterlimit:4;stroke-dasharray:none;stroke-opacity:1;display:inline"
       d="M 10.062738,4.7093592 L 9.1179803,5.6320194"
       id="path15819"
       sodipodi:nodetypes="cc" />
    <path
       style="fill:none;fill-rule:evenodd;stroke:#ffffff;stroke-width:0.30000001;stroke-linecap:round;stroke-linejoin:miter;stroke-miterlimit:4;stroke-dasharray:none;stroke-opacity:1;display:inline"
       d="M 8.5434563,4.9896893 L 8.1179807,5.3820194"
       id="path15821"
       sodipodi:nodetypes="cc" />
    <path
       style="fill:none;fill-rule:evenodd;stroke:#ffffff;stroke-width:0.30000001;stroke-linecap:round;stroke-linejoin:miter;stroke-miterlimit:4;stroke-dasharray:none;stroke-opacity:1;display:inline"
       d="M 7.2633009,4.0087961 L 6.65,4.6"
       id="path15823"
       sodipodi:nodetypes="cc" />
    <path
       style="fill:none;fill-rule:evenodd;stroke:#ffffff;stroke-width:0.30000001;stroke-linecap:round;stroke-linejoin:miter;stroke-miterlimit:4;stroke-dasharray:none;stroke-opacity:1;display:inline"
       d="M 4.841767,2.1361359 L 4.1179807,2.8820194"
       id="path15825"
       sodipodi:nodetypes="cc" />
  </g>
  <g
     id="layer2"
     inkscape:label="Frame"
     style="fill:#ffffff;fill-opacity:1;stroke:#ffffff;stroke-opacity:1;display:inline;stroke-width:0.33527682;stroke-miterlimit:4;stroke-dasharray:none;stroke-linejoin:round;stroke-linecap:round"
     transform="matrix(59.652201,0,0,59.652201,-72.304986,-50.562035)">
    <path
       style="fill:#ffffff;fill-opacity:1;fill-rule:evenodd;stroke:#ffffff;stroke-width:0.33527682;stroke-linecap:round;stroke-linejoin:round;marker-mid:none;stroke-miterlimit:4;stroke-dasharray:none;stroke-opacity:1;display:inline"
       d="M 2.25,6.5 L 6,4.5 L 9.75,6.5 L 9.4989134,6.7556834 L 8.2452133,6.25 L 5.9986595,5.9796244 L 3.7469743,6.2460938 L 2.4998353,6.7500598 L 2.25,6.5 z"
       id="path7057"
       sodipodi:nodetypes="ccccccccc" />
    <rect
       style="fill:#ffffff;fill-opacity:1;stroke:#ffffff;stroke-width:0.33527682;stroke-linecap:round;stroke-linejoin:round;stroke-miterlimit:4;stroke-dasharray:none;stroke-opacity:1;display:inline"
       id="rect7059"
       width="0.5"
       height="3.5"
       x="3.75"
       y="6" />
    <rect
       style="fill:#ffffff;fill-opacity:1;stroke:#ffffff;stroke-width:0.33527682;stroke-linejoin:round;stroke-miterlimit:4;stroke-dasharray:none;stroke-opacity:1;display:inline;stroke-linecap:round"
       id="rect7061"
       width="0.5"
       height="3.5"
       x="7.75"
       y="6"
       ry="0" />
  </g>
  <path
     sodipodi:nodetypes="csc"
     id="path10943"
     d="M 346.16505,531.70599 C 329.84989,478.72847 241.94165,478.81245 225.71046,531.70599 C 225.71046,531.70599 346.16505,531.70599 346.16505,531.70599 z"
     style="fill:#ffffff;fill-opacity:1;fill-rule:evenodd;stroke:#ffffff;stroke-width:10;stroke-linecap:round;stroke-linejoin:round;stroke-miterlimit:4;stroke-dasharray:none;stroke-opacity:1" />
  <path
     style="fill:#ffd42a;fill-opacity:1;stroke:#000000;stroke-width:5.42489338;stroke-miterlimit:4;stroke-dasharray:none;stroke-opacity:1"
     d="M 46.820147,575.38061 C 30.518031,572.40763 18.169362,563.96451 11.56219,551.2738 3.7039683,536.18014 4.2307626,554.82644 4.2307626,291.77211 4.2307626,31.571684 3.8278831,47.361071 10.842124,32.66405 15.123927,23.692341 23.761054,15.033464 32.65055,10.800711 47.669663,3.6493267 32.025587,4.0338052 294.46255,4.3662563 c 228.41943,0.289358 237.84115,0.3791246 243.57771,2.3207143 19.63362,6.6451714 30.07269,17.6948304 35.50526,37.5820074 1.81832,6.65635 1.9265,20.547216 1.9265,247.375132 0,229.30353 -0.0907,240.64258 -1.97863,247.29767 -5.40875,19.06647 -15.86533,29.68081 -34.96972,35.49734 -6.13253,1.86711 -18.22734,1.97415 -245.1461,2.16964 -193.8459,0.16701 -240.172545,-0.0638 -246.557423,-1.22815 z m 303.301813,-39.8333 c 4.56164,-4.56164 -5.19949,-22.96238 -17.68515,-33.33836 -20.90786,-17.37511 -55.63538,-20.366 -82.04541,-7.06612 -10.92212,5.5003 -21.33356,15.98765 -26.43053,26.62322 -4.14462,8.64837 -4.38845,9.82262 -2.69621,12.98461 1.09071,2.03799 2.94978,2.09863 64.33924,2.09863 47.72143,0 63.53521,-0.31913 64.51806,-1.30198 z m -161.73873,-12.01341 3.00635,-3.0081 0.28845,-96.53869 c 0.27119,-90.75996 0.40109,-96.54019 2.16996,-96.56347 1.03483,-0.0136 21.89936,-2.42875 46.36563,-5.36697 l 44.48412,-5.3422 47.46782,5.62026 47.46782,5.62026 0,95.17378 c 0,68.85984 0.34154,95.92338 1.23531,97.88499 2.4006,5.26875 6.92477,6.29591 25.9567,5.89318 17.19186,-0.36379 17.25639,-0.37453 20.25315,-3.37302 l 3.00634,-3.00806 0.28949,-91.22291 c 0.22779,-71.78126 0.57463,-91.11101 1.62747,-90.69782 0.73588,0.2888 14.89685,6.00303 31.46879,12.69827 23.37304,9.44295 30.79493,12.01138 33.09185,11.45181 1.70257,-0.41479 7.22645,-5.02491 12.99709,-10.84712 9.29345,-9.37651 10.03605,-10.44645 10.03605,-14.46006 0,-2.5458 -0.78349,-5.2646 -1.89871,-6.58874 -1.43896,-1.70852 -55.16869,-31.00982 -95.97027,-52.337 l -2.93336,-1.53328 13.48432,-12.31715 c 10.98395,-10.03321 13.61581,-13.01806 14.19343,-16.09701 1.33714,-7.12755 -6.62097,-13.26822 -12.8782,-9.93714 -3.60677,1.92008 -28.17232,24.57251 -29.44198,27.14907 -0.53875,1.09329 -1.32463,1.9878 -1.74642,1.9878 -0.95384,0 -37.96075,-19.60574 -37.96075,-20.11107 0,-0.2019 1.75255,-0.0827 3.89456,0.2649 l 3.89456,0.632 40.04707,-40.04707 c 44.00771,-44.00771 43.22921,-42.96648 36.8756,-49.32008 -2.22202,-2.22203 -4.24178,-3.17148 -6.74662,-3.17148 -3.25344,0 -7.11739,3.53734 -42.94012,39.3105 -36.03206,35.98221 -39.36497,39.61679 -39.36497,42.928 0,1.98961 0.50542,4.56185 1.12315,5.7161 0.61773,1.15424 0.82084,2.09863 0.45135,2.09863 -0.3695,0 -7.30883,-3.5029 -15.42075,-7.78421 l -14.74894,-7.78423 19.18,-18.76736 c 17.50916,-17.13248 19.18,-19.09309 19.18,-22.50644 0,-2.0565 -0.30329,-4.52944 -0.67397,-5.49543 -1.03204,-2.68946 -6.65861,-5.16102 -10.05233,-4.41564 -1.90044,0.41741 -10.58122,8.03772 -24.06158,21.12219 l -21.08852,20.46919 -13.46765,-7.02192 c -10.33342,-5.38778 -14.12091,-6.8632 -16.27468,-6.33983 -1.54387,0.37517 -54.68257,28.33448 -118.08601,62.13181 l -115.278985,61.4497 0,5.00706 c 0,4.90355 0.221122,5.22429 10.697806,15.51744 9.496063,9.32969 11.132882,10.51038 14.570802,10.51038 2.415331,0 14.992811,-4.49184 33.418187,-11.93476 16.24985,-6.56412 29.95496,-11.93477 30.45581,-11.93477 0.50084,0 0.91062,40.73061 0.91062,90.51247 l 0,90.51248 2.74948,3.26757 c 1.51222,1.79716 3.83136,3.49749 5.15365,3.77851 1.32229,0.28101 10.08377,0.43483 19.46993,0.34184 l 17.06577,-0.16907 3.00633,-3.00809 z M 59.347309,307.44804 c 4.404449,-2.33876 60.706721,-59.29612 61.967671,-62.68866 2.41766,-6.50475 -3.86583,-13.76001 -10.63028,-12.27428 -2.00247,0.43981 -13.114409,10.81849 -34.097634,31.8476 -28.139869,28.2014 -31.127115,31.53745 -31.127115,34.76164 0,2.49526 0.95258,4.51906 3.171477,6.73795 3.518734,3.51874 6.332977,3.94307 10.715881,1.61575 z m 446.285061,-42.0009 c 16.11884,-15.66535 29.76057,-29.32997 30.31496,-30.36583 3.36269,-6.28326 -1.18345,-13.96081 -8.26669,-13.96081 -3.67664,0 -5.56546,1.58028 -27.44503,22.96187 -12.92315,12.62903 -26.56202,25.95197 -30.30858,29.60654 -8.76238,8.54721 -9.87024,12.83221 -4.6638,18.03866 6.43068,6.43069 7.27991,5.87784 40.36914,-26.28043 z M 112.98574,195.34769 c 37.2705,-37.31219 38.80212,-39.00685 38.80212,-42.93247 0,-5.58633 -3.83272,-9.41318 -9.42764,-9.41318 -3.94647,0 -5.5875,1.48611 -43.448463,39.34708 -35.897415,35.89741 -39.347083,39.66209 -39.347083,42.94012 0,2.55778 0.95234,4.54537 3.305269,6.8983 2.858283,2.85828 3.846775,3.2174 7.30947,2.65548 3.509977,-0.5696 8.793394,-5.44435 42.806327,-39.49533 z m 369.87361,17.56937 c 22.69555,-20.82769 50.87492,-48.9217 51.83617,-51.67914 2.08453,-5.97968 -2.28205,-11.72601 -8.91046,-11.72601 -3.99417,0 -5.16702,0.85519 -17.44178,12.7178 -36.67379,35.44237 -45.07959,43.88783 -45.73403,45.9498 -1.78032,5.60929 2.91152,11.85601 8.9049,11.85601 2.90833,0 5.05832,-1.34899 11.3452,-7.11846 z M 204.10628,179.04577 c 38.24477,-38.24477 38.81979,-38.88482 38.81979,-43.21002 0,-5.67746 -3.767,-9.54239 -9.3006,-9.54239 -3.57038,0 -6.33309,2.51424 -42.85992,39.00499 -21.47394,21.45274 -39.32814,40.113 -39.676,41.46724 -0.76068,2.96134 1.38801,8.58421 3.82428,10.00771 0.96604,0.56445 3.69508,1.04113 6.06455,1.05927 4.22945,0.0323 5.01688,-0.67578 43.1279,-38.7868 z m 39.05481,19.64085 c 10.33357,-9.14716 68.3317,-66.97587 71.51723,-71.30832 3.85658,-5.2451 4.00537,-9.62029 0.44814,-13.17751 -1.89648,-1.89649 -3.85433,-2.66314 -6.80108,-2.66314 -3.99561,0 -5.4903,1.35422 -43.44847,39.36497 -34.18216,34.22953 -39.3105,39.789 -39.3105,42.61525 0,5.46076 4.43053,9.96855 9.99983,10.17419 1.02438,0.0379 4.44206,-2.21462 7.59485,-5.00544 z m 139.45048,-79.81978 c 37.0798,-37.069375 39.33597,-39.547744 39.33597,-43.210025 0,-5.156713 -4.00138,-9.037277 -9.31863,-9.037277 -3.5969,0 -6.29299,2.461253 -43.5252,39.733992 l -39.69077,39.734 0.6652,4.15339 c 0.82418,5.14606 4.08883,7.95082 9.25449,7.95082 3.73792,0 5.98851,-2.04497 43.27894,-39.3249 z m -284.803795,1.62189 c 17.797585,-17.75296 32.640965,-33.386135 32.985285,-34.740379 0.78485,-3.08695 -1.45919,-8.676757 -4.03719,-10.056457 -1.0724,-0.573933 -3.57175,-1.043514 -5.55411,-1.043514 -3.28021,0 -6.49904,2.902332 -35.79799,32.27812 -18.342591,18.39069 -32.280854,33.21172 -32.396273,34.44807 -0.621544,6.65788 3.080138,11.39227 8.907294,11.39227 3.183998,0 6.736327,-3.19456 35.892984,-32.27811 z m 79.675605,9.18387 c 1.30265,-0.72478 12.65424,-11.93272 25.22575,-24.90654 21.67785,-22.371599 22.85728,-23.803439 22.85728,-27.749076 0,-5.504874 -3.86382,-9.312467 -9.44997,-9.312467 -3.74517,0 -5.27953,1.354807 -27.58578,24.357771 -14.92423,15.390372 -23.86732,25.442002 -24.29175,27.302822 -0.85799,3.76168 1.41544,8.53132 4.90861,10.29819 3.35979,1.69941 5.29429,1.70157 8.33586,0.01 l 0,-4.6e-4 z m 298.95536,-0.50975 c 5.32032,-3.40859 55.88432,-52.798904 57.71204,-56.372454 1.58599,-3.100905 1.60977,-3.899279 0.21548,-7.236275 -1.73915,-4.162403 -4.51861,-6.095442 -8.76441,-6.095442 -3.10584,0 -11.94107,7.850763 -44.81663,39.822959 -16.18529,15.740542 -18.73524,18.670932 -18.71588,21.508162 0.0369,5.40308 4.44252,9.99589 9.78722,10.20299 0.89511,0.0347 2.95709,-0.78879 4.58218,-1.82994 z"
     id="path4165"
     inkscape:connector-curvature="0" />
</svg>
